<svg xmlns="http://www.w3.org/2000/svg" viewBox="640 1330 2810 1420">
  <g id="white-text">
    <path d="M 1028 1382 L 1004 1395 L 976 1415 L 954 1436 L 938 1456 L 928 1472 L 910 1512 L 896 1569 L 892 1602 L 890 1652 L 892 1788 L 903 1860 L 914 1898 L 924 1922 L 954 1972 L 979 2003 L 1024 2047 L 1090 2100 L 1376 2100 L 1355 2072 L 1326 2042 L 1162 1910 L 1131 1881 L 1107 1852 L 1089 1815 L 1080 1775 L 1079 1619 L 1083 1590 L 1089 1571 L 1101 1552 L 1120 1536 L 1136 1529 L 1160 1525 L 1185 1527 L 1210 1536 L 1219 1542 L 1237 1563 L 1245 1582 L 1250 1605 L 1252 1628 L 1251 1830 L 1438 1830 L 1438 1604 L 1431 1551 L 1415 1496 L 1404 1474 L 1387 1448 L 1356 1416 L 1319 1390 L 1299 1380 L 1271 1370 L 1224 1360 L 1186 1357 L 1146 1357 L 1078 1365 Z" fill="#ffffff" fill-rule="evenodd" />
    <path d="M 1501 1377 L 1501 1547 L 1667 1547 L 1669 1549 L 1669 2100 L 1854 2100 L 1855 1548 L 2021 1547 L 2021 1377 Z" fill="#ffffff" fill-rule="evenodd" />
    <path d="M 2185 1377 L 2172 1459 L 2084 2100 L 2252 2100 L 2291 1718 L 2305 1606 L 2308 1612 L 2334 1881 L 2351 2030 L 2363 2021 L 2376 2015 L 2391 2017 L 2406 2026 L 2423 2042 L 2471 2099 L 2529 2100 L 2428 1377 Z" fill="#ffffff" fill-rule="evenodd" />
    <path d="M 3229 1378 L 2711 1377 L 2711 1547 L 2876 1547 L 2878 1549 L 2878 2100 L 2948 2099 L 2991 2053 L 3013 2036 L 3037 2025 L 3063 2024 L 3062 1550 L 3064 1547 L 3229 1547 Z" fill="#ffffff" fill-rule="evenodd" />
    <path d="M 2536 2147 L 2462 2147 L 2455 2145 L 2440 2132 L 2382 2064 L 2358 2089 L 2375 2244 L 2375 2261 L 2236 2261 L 2234 2258 L 2242 2204 L 2247 2147 L 2077 2147 L 1996 2718 L 2181 2718 L 2216 2430 L 2218 2428 L 2394 2429 L 2431 2719 L 2616 2718 Z" fill="#ffffff" fill-rule="evenodd" />
    <path d="M 3062 2071 L 3047 2070 L 3034 2076 L 2962 2145 L 2954 2147 L 2878 2147 L 2878 2718 L 3062 2718 Z" fill="#ffffff" fill-rule="evenodd" />
    <path d="M 1406 2147 L 1146 2146 L 1190 2185 L 1221 2218 L 1241 2256 L 1251 2300 L 1253 2325 L 1253 2475 L 1249 2502 L 1241 2525 L 1232 2539 L 1210 2558 L 1192 2565 L 1153 2567 L 1127 2561 L 1113 2553 L 1100 2541 L 1085 2513 L 1080 2493 L 1077 2465 L 1077 2261 L 890 2261 L 890 2464 L 893 2506 L 899 2542 L 911 2586 L 927 2621 L 955 2660 L 984 2687 L 1027 2713 L 1079 2730 L 1146 2738 L 1215 2736 L 1271 2725 L 1294 2717 L 1323 2703 L 1357 2679 L 1387 2647 L 1408 2613 L 1424 2573 L 1437 2514 L 1441 2467 L 1441 2305 L 1439 2272 L 1427 2202 L 1418 2173 Z" fill="#ffffff" fill-rule="evenodd" />
    <path d="M 1669 2147 L 1669 2718 L 1854 2718 L 1854 2147 Z" fill="#ffffff" fill-rule="evenodd" />
  </g>
  <g id="red-pulse">
    <path d="M 3425 2117 L 3422 2110 L 3410 2102 L 3161 2102 L 3113 2052 L 3093 2037 L 3066 2026 L 3049 2025 L 3037 2027 L 3018 2035 L 2997 2050 L 2948 2101 L 2813 2102 L 2802 2108 L 2797 2116 L 2762 2296 L 2757 2311 L 2755 2307 L 2699 1731 L 2693 1648 L 2685 1635 L 2675 1631 L 2668 1631 L 2658 1635 L 2650 1647 L 2594 2128 L 2590 2142 L 2574 2113 L 2564 2104 L 2558 2102 L 2471 2101 L 2412 2033 L 2397 2022 L 2385 2017 L 2373 2018 L 2351 2032 L 2286 2102 L 687 2102 L 673 2110 L 669 2126 L 673 2136 L 685 2144 L 1407 2146 L 2294 2145 L 2311 2138 L 2382 2062 L 2444 2134 L 2455 2143 L 2461 2145 L 2543 2145 L 2587 2219 L 2598 2227 L 2612 2228 L 2623 2221 L 2628 2208 L 2667 1868 L 2670 1862 L 2676 1907 L 2729 2465 L 2732 2473 L 2738 2479 L 2751 2483 L 2763 2479 L 2771 2468 L 2799 2319 L 2831 2161 L 2836 2145 L 2955 2145 L 2962 2143 L 3024 2082 L 3037 2072 L 3048 2068 L 3065 2070 L 3077 2077 L 3134 2133 L 3144 2141 L 3152 2144 L 3411 2144 L 3422 2136 L 3425 2129 Z" fill="#DF212D" fill-rule="evenodd" />
  </g>
</svg>
